<svg version="1.1" id="Layer_1" xmlns="http://www.w3.org/2000/svg" xmlns:xlink="http://www.w3.org/1999/xlink" x="0px" y="0px"
	 width="100%" viewBox="0 0 816 832" enable-background="new 0 0 816 832" xml:space="preserve">
<path fill="#000000" opacity="1.000000" stroke="none" 
	d="
M213.872162,640.030273 
	C188.894363,585.485291 164.062988,531.286926 139.247101,477.081482 
	C113.252411,420.301239 87.273720,363.513672 61.285538,306.730469 
	C54.493462,291.890045 47.598385,277.095856 40.918774,262.205017 
	C32.664562,243.803894 37.732441,219.970810 53.221104,203.578323 
	C66.998283,188.997208 83.967804,181.748062 103.992096,181.760986 
	C186.642639,181.814346 269.293152,181.951614 351.943665,181.971786 
	C384.102478,181.979630 416.261414,181.702133 448.420166,181.721100 
	C452.132233,181.723282 454.316528,180.469299 455.811310,177.181488 
	C458.087341,172.175369 460.708282,167.335083 463.870117,162.817032 
	C472.715088,150.178131 484.918365,143.423523 500.177704,141.595108 
	C512.149597,140.160568 524.139404,140.764679 536.111938,140.743851 
	C602.433533,140.628464 668.755615,140.669617 735.077393,140.758316 
	C767.333618,140.801453 792.779663,161.755524 798.700073,193.323105 
	C800.805664,204.550140 799.055542,215.532898 794.236206,225.952423 
	C775.220886,267.063843 756.109558,308.131165 737.204529,349.293243 
	C705.232605,418.906128 673.476135,488.617981 641.462463,558.211609 
	C621.070435,602.541321 600.505310,646.789917 579.317017,690.750732 
	C564.857117,720.751648 540.668518,735.709595 508.314423,739.450378 
	C488.376404,741.755554 468.388397,740.942566 448.430176,741.114319 
	C405.940674,741.480103 363.440643,740.841675 320.955414,741.406128 
	C289.568512,741.823181 266.050659,728.265808 247.696976,703.796448 
	C234.872986,686.699402 226.522949,667.251099 217.670380,648.045593 
	C216.485306,645.474548 215.241821,642.930420 213.872162,640.030273 
M699.561523,395.131378 
	C726.334106,337.047821 753.088257,278.955750 779.904175,220.892212 
	C783.030090,214.123672 785.232849,207.093506 784.514160,199.677963 
	C782.167053,175.461472 763.061646,157.338882 738.755859,156.255859 
	C722.957520,155.551941 707.122620,155.659119 691.318054,155.550674 
	C635.677490,155.168808 580.031006,155.124710 524.391052,156.053604 
	C518.727600,156.148178 513.063232,156.214005 507.399048,156.228165 
	C491.125824,156.268845 479.464050,163.597153 472.306854,178.214325 
	C470.551239,181.799820 468.703278,185.365189 466.578491,188.738724 
	C463.701813,193.306137 459.888428,196.328644 453.987549,196.370514 
	C427.171173,196.560867 400.356171,197.187042 373.540466,197.199509 
	C283.890259,197.241180 194.239807,197.153641 104.589844,196.941940 
	C89.818474,196.907074 77.103607,201.477615 66.545303,211.709961 
	C54.532444,223.351974 47.020676,241.572189 56.417610,260.342957 
	C64.539642,276.567078 71.744812,293.251740 79.291855,309.761810 
	C106.501366,369.285919 133.635178,428.844635 160.891602,488.347168 
	C185.094620,541.183960 209.403580,593.972168 233.706848,646.762939 
	C240.880066,662.344421 247.855026,678.025940 257.975952,692.051636 
	C274.107391,714.406799 294.623383,726.829285 323.431580,726.268066 
	C376.402649,725.236084 429.405975,725.846924 482.395874,725.813293 
	C492.395172,725.807007 502.333282,725.404480 512.231079,723.726624 
	C535.554810,719.772522 553.552917,708.412231 564.126709,686.735168 
	C574.421936,665.629395 584.794006,644.553711 594.637939,623.236572 
	C629.620117,547.481812 664.391357,471.629730 699.561523,395.131378 
z"/>
<path fill="#000000" opacity="1.000000" stroke="none" 
	d="
M763.432068,234.351807 
	C726.271240,315.388397 689.338928,396.114594 652.198059,476.744690 
	C620.840027,544.820557 589.179688,612.757080 557.778503,680.813110 
	C546.161438,705.991089 525.941345,717.449585 499.019531,718.281433 
	C440.382935,720.093262 381.726196,719.304871 323.078979,719.150818 
	C303.805969,719.100220 288.382172,709.802734 275.502075,695.966431 
	C258.765503,677.987427 248.274155,656.189880 238.106461,634.251831 
	C210.512375,574.714417 182.884933,515.191162 155.634369,455.496277 
	C131.914078,403.534729 108.679977,351.351135 85.253471,299.255615 
	C79.516228,286.497192 73.626877,273.799683 68.228210,260.898102 
	C57.949009,236.333145 68.391640,209.896927 100.774727,206.635269 
	C117.066086,204.994385 133.411240,205.781265 149.724487,205.763977 
	C248.716797,205.659134 347.710052,205.591690 446.701050,205.987198 
	C461.405579,206.045944 471.192169,200.315994 477.533813,187.579346 
	C477.904846,186.834122 478.340820,186.121521 478.730133,185.385010 
	C485.975037,171.678940 497.104065,165.198761 512.837646,165.560425 
	C533.491577,166.035202 554.175049,166.064087 574.828308,165.564072 
	C625.308533,164.341873 675.792664,164.843735 726.275269,164.633286 
	C733.519287,164.603088 740.549683,165.772018 747.340820,168.140366 
	C770.568726,176.240891 779.734436,197.252655 769.984314,219.902466 
	C767.943481,224.643402 765.713196,229.302780 763.432068,234.351807 
M765.420898,193.282700 
	C762.201416,184.567108 755.773438,179.036713 747.436462,175.601288 
	C740.611267,172.788803 733.415588,171.296082 726.028748,171.380997 
	C700.880798,171.669998 675.735718,171.015106 650.578735,171.942169 
	C630.607117,172.678162 610.590454,172.204742 590.593811,172.246490 
	C564.596985,172.300766 538.599854,172.422394 512.603455,172.335876 
	C500.559937,172.295807 491.328949,176.671829 485.572784,187.657257 
	C483.492126,191.628128 480.956421,195.377228 478.437195,199.098114 
	C473.500519,206.389648 466.472534,210.642227 457.894592,212.062180 
	C453.484528,212.792191 448.938202,212.977463 444.456116,212.951660 
	C391.473724,212.646744 338.492676,213.092178 285.506104,212.565048 
	C224.866287,211.961777 164.208633,211.795700 103.568794,213.304932 
	C95.898903,213.495819 88.767532,215.721786 82.559258,220.282440 
	C71.061592,228.728745 68.076233,244.002335 74.823105,259.072845 
	C88.296631,289.168701 101.762451,319.268066 115.267380,349.349854 
	C158.856247,446.442474 203.104263,543.233215 248.374908,639.554260 
	C257.258698,658.456055 267.024872,676.875427 281.742218,692.035950 
	C291.692108,702.285461 303.303741,709.972290 317.917450,711.603333 
	C324.847870,712.376770 331.871613,712.586975 338.852997,712.585510 
	C379.834656,712.576965 420.818451,712.969177 461.796631,711.996887 
	C473.289246,711.724243 484.790680,711.845276 496.285645,711.644592 
	C522.281921,711.190735 541.398621,700.362793 552.463013,675.887451 
	C569.821167,637.489685 587.907166,599.421631 605.548340,561.151001 
	C635.112732,497.014069 664.583008,432.833740 694.067261,368.659790 
	C717.014648,318.713562 739.944275,268.759094 762.826843,218.783112 
	C766.439758,210.892410 768.215759,202.693420 765.420898,193.282700 
z"/>
<path fill="#000000" opacity="1.000000" stroke="none" 
	d="
M384.427582,508.516174 
	C382.596802,512.274719 379.093231,511.677338 376.355469,512.104431 
	C354.129974,515.571228 331.754242,517.447266 309.253326,516.942383 
	C299.953735,516.733704 290.619293,516.715576 281.350616,515.520874 
	C275.860870,514.813293 273.890320,516.967407 276.068420,521.515869 
	C293.179749,557.249329 308.717682,593.811340 331.105530,626.786560 
	C333.812469,630.773560 336.562042,634.726807 340.583710,637.518250 
	C343.265900,636.874329 343.755920,634.532471 344.679108,632.697083 
	C373.346954,575.703308 401.917480,518.660645 430.626160,461.687469 
	C462.706146,398.023895 494.918121,334.426880 527.047180,270.788055 
	C538.690247,247.726257 554.039246,228.059235 576.968445,215.076416 
	C613.778687,194.233994 663.309021,197.897629 696.409485,224.184357 
	C701.980530,228.608612 706.671997,233.879730 709.254822,241.106613 
	C699.063232,234.672958 688.648010,232.488205 677.681641,238.150360 
	C666.616760,243.863373 662.513489,253.452774 663.290588,265.233917 
	C662.123901,266.068115 661.436340,265.467041 660.755066,265.066162 
	C629.758240,246.826355 596.597778,255.965973 579.770447,287.913483 
	C566.111267,313.846161 553.015015,340.077301 539.816772,366.250519 
	C499.545288,446.112396 459.348846,526.012085 419.115326,605.893127 
	C404.730713,634.452759 390.239868,662.959412 376.017029,691.599365 
	C373.868073,695.926636 371.296936,697.473328 366.444061,697.454834 
	C353.076508,697.403931 339.806000,697.217346 327.028046,692.584412 
	C309.618195,686.272034 297.486450,673.702942 287.244415,658.953979 
	C270.076935,634.232056 256.812683,607.343140 243.759537,580.336548 
	C224.116913,539.696472 205.197525,498.723633 187.546539,457.179810 
	C179.678192,438.660583 170.719727,420.433380 166.405060,400.671814 
	C159.345612,368.339020 160.685608,336.435181 175.136459,306.079346 
	C188.397385,278.223022 210.314362,259.242859 238.283173,246.900360 
	C256.713409,238.767166 276.190735,234.627106 296.004395,231.759552 
	C300.061310,231.172409 302.335663,231.867874 302.741730,236.914093 
	C303.914032,251.481567 305.742126,265.995850 307.254211,280.537109 
	C307.387421,281.818146 307.093781,283.143585 306.969727,284.840790 
	C297.293335,286.798401 287.526917,287.695709 278.096313,290.330170 
	C262.989929,294.550201 248.862823,300.595367 237.290619,311.532043 
	C224.822678,323.315186 219.081665,338.172363 217.213287,354.961578 
	C215.774490,367.890442 217.212067,380.459015 220.202621,393.002075 
	C221.350220,397.815338 223.846100,399.926605 228.872055,400.909119 
	C270.435059,409.034149 312.427063,411.071106 354.586273,409.480499 
	C381.004761,408.483765 407.215607,404.892609 433.106628,399.332825 
	C434.732941,398.983612 436.289673,398.451538 437.841736,399.030518 
	C438.790131,400.888031 437.607574,402.118774 436.907776,403.325317 
	C431.727051,412.257263 426.447937,421.132050 421.244965,430.051147 
	C420.145203,431.936401 418.544403,432.834259 416.470306,433.274475 
	C393.500458,438.149506 370.340820,441.224731 346.853058,442.559265 
	C329.501373,443.545135 312.236816,443.145386 294.968384,442.182861 
	C278.384613,441.258514 261.869476,439.323853 245.452530,436.703735 
	C243.448486,436.383911 241.369919,435.823120 239.918045,437.712341 
	C238.552933,439.488647 239.785934,441.224213 240.534500,442.850189 
	C249.428619,462.169159 243.099609,457.386169 264.689606,460.684998 
	C289.820099,464.524750 315.171387,464.333923 340.453400,463.481445 
	C361.723938,462.764252 382.851105,460.024597 403.625488,455.067017 
	C405.649170,454.584076 407.656494,453.479248 410.985443,454.471924 
	C402.111572,472.535370 393.358490,490.352936 384.427582,508.516174 
z"/>
<path fill="#000000" opacity="1.000000" stroke="none" 
	d="
M629.524902,367.940460 
	C605.687805,373.709930 581.191650,358.266815 577.224487,335.137726 
	C574.774719,320.855530 586.086548,298.809448 607.455994,298.568085 
	C622.268311,298.400818 634.615051,303.596405 644.086914,314.647888 
	C659.552979,332.693054 652.182007,359.589874 629.524902,367.940460 
M590.450256,318.006683 
	C584.627014,327.351166 584.598877,334.960571 591.565552,343.288757 
	C600.161987,353.565094 611.241943,359.093567 624.992798,357.641174 
	C638.074951,356.259399 646.333496,342.090759 640.890991,330.159515 
	C635.618713,318.601257 625.725525,312.940155 613.806702,310.220337 
	C604.765259,308.157104 597.011353,310.212860 590.450256,318.006683 
z"/>
<path fill="#000000" opacity="1.000000" stroke="none" 
	d="
M516.910522,506.189148 
	C510.015625,502.771606 503.500763,499.421478 496.887360,496.278717 
	C493.945312,494.880585 493.529785,493.280670 495.030365,490.403656 
	C499.494232,481.845276 503.719849,473.162537 508.031128,464.524689 
	C511.533478,457.507660 512.552551,457.320923 519.204529,462.923553 
	C515.831543,469.792053 512.552979,476.862579 508.906799,483.738159 
	C506.870331,487.578308 507.477417,489.715637 511.603180,491.363861 
	C516.053406,493.141632 520.279785,495.479675 525.113586,497.820068 
	C529.329956,491.118805 532.511963,484.218262 535.760986,477.375366 
	C537.459839,473.797302 539.440491,473.436890 542.797363,475.354675 
	C545.718933,477.023743 545.851562,478.687500 544.448059,481.403320 
	C541.016846,488.042877 537.785828,494.785889 534.251343,501.938202 
	C540.463440,506.225159 547.201904,508.977020 553.737183,512.071960 
	C556.242004,513.258179 556.868408,510.902985 557.651367,509.380524 
	C561.076294,502.720642 564.469788,496.042847 567.743774,489.307953 
	C569.039062,486.643402 570.407776,485.353943 573.487671,487.059418 
	C576.255005,488.591827 578.250488,489.890289 576.372925,493.548950 
	C571.205933,503.617218 566.163879,513.751831 561.236389,523.939453 
	C559.655701,527.207520 557.740173,526.638245 555.198853,525.352844 
	C542.574097,518.966858 529.904358,512.669556 516.910522,506.189148 
z"/>
<path fill="#000000" opacity="1.000000" stroke="none" 
	d="
M497.626862,612.411377 
	C482.386505,604.837708 467.549927,597.285400 452.545441,590.082764 
	C448.068573,587.933655 447.147766,585.810669 449.613525,581.320374 
	C454.337006,572.718445 458.671631,563.889404 462.828735,554.996277 
	C464.649414,551.101379 466.786957,551.574951 469.967499,552.963257 
	C473.762573,554.619873 472.608063,556.677429 471.261017,559.277344 
	C468.276123,565.038513 465.642822,570.984680 462.571106,576.696777 
	C460.572998,580.412415 461.575989,582.468262 465.227509,584.037415 
	C468.586945,585.481140 471.903564,587.085205 475.057190,588.929504 
	C478.066437,590.689331 479.823242,590.115173 481.304199,586.975159 
	C484.072723,581.105103 487.212830,575.409668 489.954163,569.527649 
	C491.406494,566.411438 493.146240,566.419556 495.880615,567.794739 
	C498.683624,569.204407 500.165466,570.500183 498.322510,573.874207 
	C495.213196,579.566589 492.499695,585.474487 489.582489,591.273010 
	C488.611359,593.203247 487.894958,595.075806 490.388733,596.359375 
	C496.555298,599.533447 502.753998,602.645081 509.457306,606.044189 
	C513.696655,597.681519 517.713013,590.050415 521.431458,582.276855 
	C522.875000,579.258911 524.296265,578.263489 527.531738,579.953674 
	C530.521423,581.515442 531.921143,582.873352 530.056458,586.427673 
	C524.954224,596.153381 520.045227,605.986328 515.321594,615.901489 
	C513.660400,619.388550 511.718292,619.665955 508.653809,617.987366 
	C505.152191,616.069275 501.533936,614.364258 497.626862,612.411377 
z"/>
<path fill="#000000" opacity="1.000000" stroke="none" 
	d="
M469.512421,655.591797 
	C453.652618,653.270874 438.210114,651.130676 422.806641,648.739075 
	C420.998932,648.458435 417.491302,649.348816 418.050476,645.323364 
	C418.658447,640.946228 421.979401,637.450989 425.184387,637.965332 
	C442.386108,640.725952 459.579437,643.538879 476.773468,646.347046 
	C478.082489,646.560913 479.374908,646.922424 480.969513,646.192444 
	C480.422791,643.369812 477.869904,642.105408 476.149994,640.345215 
	C465.682739,629.632874 455.023346,619.108093 444.566956,608.385254 
	C438.327118,601.986389 438.423950,601.203430 444.235748,593.810303 
	C446.527466,593.838074 447.516052,595.825867 448.823425,597.180969 
	C464.304932,613.228455 479.586853,629.472229 495.280090,645.308777 
	C498.838684,648.899841 497.553558,651.460144 495.929718,654.908203 
	C494.359528,658.242249 492.585754,659.579529 488.602325,658.654297 
	C482.483185,657.232971 476.171448,656.641052 469.512421,655.591797 
z"/>
<path fill="#000000" opacity="1.000000" stroke="none" 
	d="
M559.212952,437.132202 
	C565.455139,432.287872 572.019836,429.953674 579.529053,432.127838 
	C590.955200,435.436188 596.787781,445.754669 594.012939,458.015594 
	C592.129639,466.337463 587.773499,473.301880 581.533508,479.191132 
	C577.783813,482.730042 575.699402,479.924927 573.290466,477.624695 
	C570.286499,474.756195 572.994995,473.311371 574.802795,471.736847 
	C578.886475,468.180023 582.206726,464.095673 583.965942,458.899048 
	C585.874756,453.260468 584.766174,448.258575 580.986389,445.241547 
	C576.430054,441.604767 572.292236,441.337311 566.765564,445.097015 
	C562.521301,447.984314 558.782227,451.602783 554.654846,454.676270 
	C549.205933,458.733765 543.112366,460.625519 536.347412,458.748322 
	C526.232605,455.941650 520.891174,446.916138 522.835144,435.249847 
	C524.094482,427.692139 527.795410,421.229401 533.373352,415.841980 
	C536.127319,413.182159 537.870056,414.554626 540.006775,416.661102 
	C542.202515,418.825867 542.657593,420.440674 540.156738,422.797791 
	C535.862732,426.844910 532.629639,431.506348 531.973694,437.738983 
	C531.245667,444.657074 539.702026,451.145935 546.337402,447.130920 
	C550.960022,444.333832 554.576965,440.407715 559.212952,437.132202 
z"/>
<path fill="#000000" opacity="1.000000" stroke="none" 
	d="
M611.130493,418.231323 
	C598.349060,427.434174 585.313782,426.793854 572.165833,420.283600 
	C558.737427,413.634552 550.635803,402.951263 550.169556,387.702881 
	C549.801941,375.678772 554.719421,365.382538 562.746338,356.528412 
	C565.527771,353.460327 567.570557,355.307831 569.909851,357.268921 
	C572.725525,359.629425 571.580811,361.235046 569.549377,363.328278 
	C564.684753,368.340851 561.370361,374.335175 560.371765,381.267365 
	C558.298523,395.659882 567.227966,407.605255 583.307983,412.400024 
	C599.134949,417.119324 613.063354,407.968628 617.572754,389.882812 
	C618.089600,387.809906 618.574158,385.728943 619.053406,383.736115 
	C627.437622,383.496399 628.456665,384.713745 626.344116,392.604340 
	C623.713745,402.428741 619.494690,411.363647 611.130493,418.231323 
z"/>
<path fill="#000000" opacity="1.000000" stroke="none" 
	d="
M472.646484,535.559448 
	C474.246613,530.805542 476.613190,530.508179 480.671997,532.594482 
	C496.196625,540.574646 511.956909,548.095642 527.504395,556.032532 
	C531.721375,558.185303 533.961853,557.590881 535.903625,553.164246 
	C538.637634,546.931458 542.110840,541.026855 544.980286,534.848267 
	C546.752930,531.031250 549.029602,531.983276 551.831238,533.295288 
	C554.828491,534.698792 554.997498,536.374390 553.536438,539.208496 
	C548.586060,548.811340 543.796875,558.501038 539.150208,568.254700 
	C537.561707,571.589050 536.012329,572.696533 532.315247,570.812439 
	C513.211853,561.076965 494.000793,551.552063 474.794678,542.019409 
	C471.963287,540.614075 470.383759,539.019165 472.646484,535.559448 
z"/>
<path fill="#000000" opacity="1.000000" stroke="none" 
	d="
M676.255066,271.815918 
	C668.986389,263.949005 667.782349,255.994644 672.399780,247.972031 
	C676.207214,241.356873 684.577454,237.572739 691.998718,239.111542 
	C699.814575,240.732162 705.893127,246.898193 707.131714,254.462296 
	C708.376343,262.063538 704.944702,269.649780 698.415039,273.732056 
	C691.951965,277.772705 683.423462,277.117615 676.255066,271.815918 
M673.186401,254.565002 
	C671.951965,261.558289 674.944275,268.003448 681.003540,271.402618 
	C687.053223,274.796387 693.403076,274.185364 698.583801,269.710846 
	C703.796875,265.208282 705.656006,257.849213 703.141663,251.669449 
	C700.730042,245.742432 694.862671,241.985733 688.167297,242.081924 
	C680.858521,242.186920 676.231079,245.837570 673.186401,254.565002 
z"/>
<path fill="#000000" opacity="1.000000" stroke="none" 
	d="
M681.852722,265.625336 
	C681.759521,260.500977 681.818909,255.832214 681.641479,251.172501 
	C681.516235,247.882843 683.031189,246.855331 686.132324,246.768448 
	C694.348083,246.538345 697.081116,249.630081 694.932434,257.415192 
	C694.077942,260.511353 696.575134,261.449371 697.947998,263.129333 
	C698.971130,264.381378 700.780518,265.392426 698.961792,267.236206 
	C697.213379,269.008575 695.927429,267.519409 694.750977,266.384644 
	C692.255920,263.978058 689.531555,261.758545 687.912415,258.873901 
	C687.968140,256.940765 689.607178,256.656342 690.414673,255.660294 
	C691.213013,254.675446 691.702942,253.669464 690.744568,252.540543 
	C690.056824,251.730560 689.130432,251.365128 688.070496,251.501419 
	C686.547913,251.697174 686.318359,252.857758 686.309570,254.080734 
	C686.283142,257.745514 686.325745,261.411041 686.274719,265.075348 
	C686.258789,266.219269 686.258667,267.519135 684.805115,267.923737 
	C683.212219,268.367126 682.259766,267.662872 681.852722,265.625336 
z"/>
</svg>